<svg width="640" height="480" xmlns="http://www.w3.org/2000/svg">
  <!-- Created with SVG-edit - http://svg-edit.googlecode.com/ -->

  <g>
    <title>Layer 1</title>
    <g id="svg_22">
      <g transform="matrix(2.8563749965101692,0,0,2.8563749965101692,0,0) " id="svg_5">
        <path fill="#ffffff" id="svg_6" d="m159.365097,63.463577l-47.334991,42.604004l-47.334999,-42.604004l1.337997,-1.485996l45.997002,41.395992l45.996994,-41.395992l1.337997,1.485996z"/>
      </g>
      <g transform="matrix(2.8563749965101692,0,0,2.8563749965101692,0,0) " id="svg_7"/>
      <g transform="matrix(2.8563749965101692,0,0,2.8563749965101692,0,0) " id="svg_8"/>
      <g transform="matrix(2.8563749965101692,0,0,2.8563749965101692,0,0) " id="svg_9"/>
      <g transform="matrix(2.8563749965101692,0,0,2.8563749965101692,0,0) " id="svg_10"/>
      <g transform="matrix(2.8563749965101692,0,0,2.8563749965101692,0,0) " id="svg_11"/>
      <g transform="matrix(2.8563749965101692,0,0,2.8563749965101692,0,0) " id="svg_12"/>
      <g transform="matrix(2.8563749965101692,0,0,2.8563749965101692,0,0) " id="svg_13"/>
      <g transform="matrix(2.8563749965101692,0,0,2.8563749965101692,0,0) " id="svg_14"/>
      <g transform="matrix(2.8563749965101692,0,0,2.8563749965101692,0,0) " id="svg_15"/>
      <g transform="matrix(2.8563749965101692,0,0,2.8563749965101692,0,0) " id="svg_16"/>
      <g transform="matrix(2.8563749965101692,0,0,2.8563749965101692,0,0) " id="svg_17"/>
      <g transform="matrix(2.8563749965101692,0,0,2.8563749965101692,0,0) " id="svg_18"/>
      <g transform="matrix(2.8563749965101692,0,0,2.8563749965101692,0,0) " id="svg_19"/>
      <g transform="matrix(2.8563749965101692,0,0,2.8563749965101692,0,0) " id="svg_20"/>
      <g transform="matrix(2.8563749965101692,0,0,2.8563749965101692,0,0) " id="svg_21"/>
    </g>
  </g>
</svg>